<?xml version="1.0" encoding="UTF-8"?>
<svg width="240" height="240" viewBox="0 0 240 240" fill="none" xmlns="http://www.w3.org/2000/svg">
    <!-- 背景圆圈 -->
    <circle cx="120" cy="120" r="116" stroke="url(#paint0_linear)" stroke-width="8"/>
    
    <!-- 问号主体 -->
    <path d="M120 180C115.582 180 111.832 178.582 108.75 175.75C105.668 172.918 104.127 169.418 104.127 165.25C104.127 161.082 105.668 157.582 108.75 154.75C111.832 151.918 115.582 150.5 120 150.5C124.418 150.5 128.168 151.918 131.25 154.75C134.332 157.582 135.873 161.082 135.873 165.25C135.873 169.418 134.332 172.918 131.25 175.75C128.168 178.582 124.418 180 120 180ZM110.5 130V125C110.5 119.5 111.5 115 113.5 111.5C115.5 108 119 104.5 124 101C129 97.5 132 94.5 133 92C134 89.5 134.5 86.5 134.5 83C134.5 78.5 133 75 130 72.5C127 70 123 68.75 118 68.75C113.5 68.75 109.75 70 106.75 72.5C103.75 75 101.75 78.5 100.75 83L85 78.5C86.5 71 90.25 65 96.25 60.5C102.25 56 109.5 53.75 118 53.75C127.5 53.75 135.25 56.5 141.25 62C147.25 67.5 150.25 74.75 150.25 83.75C150.25 89.25 149.25 94 147.25 98C145.25 102 141.25 106 135.25 110C130.25 113.5 127.25 116.5 126.25 119C125.25 121.5 124.75 125 124.75 129.5V130H110.5Z" fill="url(#paint1_linear)"/>
    
    <!-- 渐变定义 -->
    <defs>
        <linearGradient id="paint0_linear" x1="0" y1="0" x2="240" y2="240" gradientUnits="userSpaceOnUse">
            <stop offset="0" stop-color="#7828C8"/>
            <stop offset="1" stop-color="#006FEE"/>
        </linearGradient>
        <linearGradient id="paint1_linear" x1="85" y1="53.75" x2="150.25" y2="180" gradientUnits="userSpaceOnUse">
            <stop offset="0" stop-color="#7828C8"/>
            <stop offset="1" stop-color="#006FEE"/>
        </linearGradient>
    </defs>
</svg>
